<?xml version="1.0" standalone="no"?><svg xmlns="http://www.w3.org/2000/svg" viewBox="0 0 1440 320"><path fill="#00252e" fill-opacity="1" d="M0,192L40,181.3C80,171,160,149,240,149.3C320,149,400,171,480,202.7C560,235,640,277,720,245.3C800,213,880,107,960,74.7C1040,43,1120,85,1200,117.3C1280,149,1360,171,1400,181.3L1440,192L1440,320L1400,320C1360,320,1280,320,1200,320C1120,320,1040,320,960,320C880,320,800,320,720,320C640,320,560,320,480,320C400,320,320,320,240,320C160,320,80,320,40,320L0,320Z"></path></svg>